<svg xmlns="http://www.w3.org/2000/svg" viewBox="0 0 270 40"><defs><style>.a{fill:#028bb9;}.b{fill:#ff9500;}</style></defs><path class="a" d="M43.82,40l.71-3.93H48a3.39,3.39,0,0,0,2.21-.61,3.34,3.34,0,0,0,1-2.05l3.5-19.85H49.39L50,9.76h5.33l.5-2.92a8,8,0,0,1,2.52-5A8.25,8.25,0,0,1,63.71.3h5.11L68.1,4.22H63.54a3.56,3.56,0,0,0-2.22.59,3.31,3.31,0,0,0-1,2.07l-.51,2.88h7.31l-.67,3.8H59.15L55.64,33.45a8.56,8.56,0,0,1-2.34,5Q51.59,40,47.79,40Z"/><path class="a" d="M79.13,31.21a7.44,7.44,0,0,1-6.95-4.35,11.66,11.66,0,0,1-1.08-5.28,14.66,14.66,0,0,1,.72-4.6A12.33,12.33,0,0,1,74,13a10.32,10.32,0,0,1,3.55-2.77,11.29,11.29,0,0,1,4.9-1,6.9,6.9,0,0,1,3.82.95,5.06,5.06,0,0,1,2,2.26l.47-2.7h4.51L90.45,25.34c-.17,1,.24,1.48,1.22,1.48h1.78l-.72,3.89H88.8a2.79,2.79,0,0,1-2.13-.78,2.73,2.73,0,0,1-.74-2v-.42h-.26a6.79,6.79,0,0,1-2.47,2.68A7.55,7.55,0,0,1,79.13,31.21ZM80.56,27a5.85,5.85,0,0,0,3.68-1.14,7.1,7.1,0,0,0,2.22-3,10.45,10.45,0,0,0,.73-3.91,5.75,5.75,0,0,0-1.28-4,4.36,4.36,0,0,0-3.36-1.39,6.27,6.27,0,0,0-3.68,1.07,7,7,0,0,0-2.32,2.81,8.93,8.93,0,0,0-.8,3.76,6.19,6.19,0,0,0,1.37,4.27A4.46,4.46,0,0,0,80.56,27Z"/><path class="a" d="M103.2,30.71l-5.36-21h4.9l3.88,16.3,5.75-9.38a8.73,8.73,0,0,0,1.22-3.16l.64-3.76h4.6l-.68,3.76a15.52,15.52,0,0,1-.71,2.85,14.33,14.33,0,0,1-1.27,2.43l-7.52,11.91Z"/><path class="a" d="M134,30.71a3.93,3.93,0,0,1-3.33-1.42,4.58,4.58,0,0,1-.68-3.78L131.84,15c.17-.93-.2-1.4-1.1-1.4h-5.07l.68-3.88h5.87q2.7,0,3.63,1.26c.62.85.78,2.17.47,4l-1.86,10.44c-.14.93.24,1.39,1.14,1.39h6l-.68,3.89Zm1.78-24.16a3.5,3.5,0,0,1-2.49-1,3.1,3.1,0,0,1-1-2.35,3,3,0,0,1,1-2.32A3.53,3.53,0,0,1,135.77,0a3.48,3.48,0,0,1,2.47.93,3,3,0,0,1,1,2.32,3.14,3.14,0,0,1-1,2.35A3.45,3.45,0,0,1,135.77,6.55Z"/><path class="a" d="M157.69,31.21a9.62,9.62,0,0,1-4.88-1.2,8.22,8.22,0,0,1-3.23-3.38,10.91,10.91,0,0,1-1.14-5.13,13.06,13.06,0,0,1,1.5-6.32,11.16,11.16,0,0,1,4.16-4.35,11.87,11.87,0,0,1,6.17-1.58,9,9,0,0,1,6.27,2.05A7.72,7.72,0,0,1,169,16.77h-4.69A3.32,3.32,0,0,0,163,14.36a5.18,5.18,0,0,0-3.17-.89,6.12,6.12,0,0,0-3.55,1.06,7.19,7.19,0,0,0-2.38,2.81A8.58,8.58,0,0,0,153,21.2a6,6,0,0,0,1.42,4.33,4.49,4.49,0,0,0,3.4,1.5,5.52,5.52,0,0,0,3.27-.91,5.71,5.71,0,0,0,2-2.42h4.73Q165.5,31.22,157.69,31.21Z"/><path class="a" d="M182.61,31.21A9.94,9.94,0,0,1,177.56,30a8.29,8.29,0,0,1-3.27-3.42,11,11,0,0,1-1.14-5.11,12.82,12.82,0,0,1,1.46-6.11,11.37,11.37,0,0,1,4.14-4.43,11.7,11.7,0,0,1,6.31-1.67,9.7,9.7,0,0,1,5,1.22,8.49,8.49,0,0,1,3.26,3.43A10.79,10.79,0,0,1,194.44,19,13,13,0,0,1,193,25.09a11.18,11.18,0,0,1-10.37,6.12Zm.21-4.26a6.83,6.83,0,0,0,3.78-1A6.59,6.59,0,0,0,189,23.21a8.54,8.54,0,0,0,.84-3.82A6.06,6.06,0,0,0,188.44,15a4.87,4.87,0,0,0-3.68-1.5,6.6,6.6,0,0,0-6.21,3.73,8.58,8.58,0,0,0-.84,3.83,6,6,0,0,0,1.46,4.41A5,5,0,0,0,182.82,27Z"/><path class="a" d="M198.66,30.71l2.74-15.59c.17-1-.22-1.48-1.18-1.48h-1.77l.67-3.88h3.81a3.22,3.22,0,0,1,2.34.76,2.64,2.64,0,0,1,.78,2v.21h.25A7.31,7.31,0,0,1,209,10.18a8.42,8.42,0,0,1,4.08-.93,6.78,6.78,0,0,1,4.24,1.25,6.32,6.32,0,0,1,2.24,3.38,10.22,10.22,0,0,1,.1,4.79l-2.11,12h-4.47L215.17,19a5.38,5.38,0,0,0-.54-4,3.75,3.75,0,0,0-3.38-1.54,5.46,5.46,0,0,0-4,1.6,8.34,8.34,0,0,0-2.2,4.57l-1.94,11.15Z"/><path class="b" d="M235.36,30.71A3.93,3.93,0,0,1,232,29.29a4.62,4.62,0,0,1-.68-3.78L233.21,15c.17-.93-.2-1.4-1.1-1.4H227l.68-3.88h5.87q2.7,0,3.63,1.26c.62.85.78,2.17.47,4l-1.86,10.44c-.14.93.24,1.39,1.14,1.39h6l-.68,3.89Zm1.78-24.16a3.5,3.5,0,0,1-2.49-1,3.1,3.1,0,0,1-1-2.35,3,3,0,0,1,1-2.32A3.53,3.53,0,0,1,237.14,0a3.48,3.48,0,0,1,2.47.93,3,3,0,0,1,1,2.32,3.14,3.14,0,0,1-1,2.35A3.45,3.45,0,0,1,237.14,6.55Z"/><path class="b" d="M260.41,30.71A5.89,5.89,0,0,1,255.77,29c-1.05-1.16-1.38-2.86-1-5.09l1.82-10.3h-5.28l.67-3.8h3.13A2.87,2.87,0,0,0,258,7.64l1.23-3.37h3.46l-1,5.49H270l-.68,3.8h-8.27l-1.82,10.22a2.71,2.71,0,0,0,.4,2.15,2.75,2.75,0,0,0,2.3.81h5l-.68,4Z"/><path class="b" d="M20,40c8.76,0,13.64,0,16.82-3.18S40,28.76,40,20,40,6.36,36.82,3.18,28.76,0,20,0,6.36,0,3.18,3.18,0,11.24,0,20,0,33.64,3.18,36.82,11.24,40,20,40Z"/><path class="a" d="M20,3.9l4.29,12.16H37.18l-10,7.88L30.74,36.1,20,29,9.26,36.1l3.58-12.16-10-7.88H15.71Z"/></svg>