<?xml version="1.0" encoding="utf-8"?>
<!-- Generator: Adobe Illustrator 25.3.0, SVG Export Plug-In . SVG Version: 6.00 Build 0)  -->
<svg version="1.1" id="Layer_1" xmlns="http://www.w3.org/2000/svg" xmlns:xlink="http://www.w3.org/1999/xlink" x="0px" y="0px" style="enable-background:new 0 0 405 60;" xml:space="preserve">
<style type="text/css">
	.st0{fill:#FFFFFF;}
	.st1{fill:#FF9500;}
	.st2{fill:#028BB9;}
</style>
<g id="icon">
	<path class="st1" d="M30,60c13.1,0,20.5,0,25.2-4.8S60,43.1,60,30s0-20.5-4.8-25.2S43.1,0,30,0S9.5,0,4.8,4.8S0,16.9,0,30
		s0,20.5,4.8,25.2S16.9,60,30,60z"/>
	<path class="st2" d="M30,5.9l6.4,18.2h19.3l-15,11.8l5.3,18.2L30,43.5L13.9,54.1l5.4-18.2l-15-11.8h19.3L30,5.9z"/>
</g>
<g id="favicon">
	<path class="st0" d="M65.7,60l1.1-5.9H72c1.2,0.1,2.3-0.2,3.3-0.9c0.8-0.8,1.4-1.9,1.5-3.1l5.2-29.8h-8l0.9-5.7h8l0.8-4.4
		c0.3-2.9,1.7-5.5,3.8-7.5c2.3-1.7,5.2-2.5,8-2.3h7.7l-1.1,5.9h-6.8C94.1,6.3,93,6.6,92,7.2c-0.9,0.8-1.4,1.9-1.5,3.1l-0.8,4.3h11
		l-1,5.7H88.7l-5.3,29.8c-0.3,2.8-1.5,5.5-3.5,7.5c-1.7,1.5-4.5,2.3-8.3,2.3H65.7z"/>
	<path class="st0" d="M118.7,46.8c-4.5,0.1-8.6-2.5-10.4-6.5c-1.2-2.5-1.7-5.2-1.6-7.9c0-2.3,0.4-4.7,1.1-6.9c0.7-2.2,1.8-4.2,3.3-6
		c1.4-1.8,3.3-3.2,5.3-4.2c2.3-1,4.8-1.6,7.3-1.5c2-0.1,4,0.4,5.7,1.4c1.3,0.8,2.4,2,3,3.4l0.7-4h6.8L135.7,38
		c-0.3,1.5,0.4,2.2,1.8,2.2h2.7l-1.1,5.8h-5.9c-1.2,0.1-2.3-0.3-3.2-1.2c-0.8-0.8-1.2-1.9-1.1-3v-0.6h-0.4c-0.8,1.7-2.1,3-3.7,4
		C123,46.4,120.8,46.9,118.7,46.8z M120.8,40.5c2,0.1,3.9-0.5,5.5-1.7c1.5-1.2,2.6-2.7,3.3-4.5c0.7-1.9,1.1-3.9,1.1-5.9
		c0.1-2.2-0.5-4.3-1.9-6c-1.3-1.4-3.1-2.2-5-2.1c-2-0.1-3.9,0.5-5.5,1.6c-1.5,1.1-2.7,2.5-3.5,4.2c-0.8,1.8-1.2,3.7-1.2,5.6
		c-0.1,2.3,0.6,4.6,2.1,6.4C117,39.7,118.9,40.5,120.8,40.5z"/>
	<path class="st0" d="M154.8,46.1l-8-31.5h7.4l5.8,24.4l8.6-14.1c0.9-1.4,1.5-3.1,1.8-4.7l1-5.6h6.9l-1,5.6
		c-0.2,1.5-0.6,2.9-1.1,4.3c-0.5,1.3-1.2,2.5-1.9,3.6L163,46L154.8,46.1z"/>
	<path class="st0" d="M201,46.1c-1.9,0.1-3.8-0.6-5-2.1c-1.2-1.6-1.5-3.7-1-5.7l2.8-15.8c0.3-1.4-0.3-2.1-1.7-2.1h-7.6l1-5.8h8.8
		c2.7,0,4.5,0.6,5.4,1.9c0.9,1.3,1.2,3.3,0.7,6l-2.8,15.7c-0.2,1.4,0.4,2.1,1.7,2.1h9l-1,5.8L201,46.1z M203.7,9.8
		c-1.4,0-2.7-0.5-3.7-1.5c-1-0.9-1.5-2.2-1.5-3.5c0-1.3,0.5-2.6,1.5-3.5c1-0.9,2.4-1.4,3.7-1.3c1.4,0,2.7,0.5,3.7,1.4
		c1,0.9,1.5,2.2,1.5,3.5c0,1.3-0.5,2.6-1.5,3.5C206.4,9.3,205,9.9,203.7,9.8L203.7,9.8z"/>
	<path class="st0" d="M236.5,46.8c-2.6,0.1-5.1-0.6-7.3-1.8c-2.1-1.2-3.8-2.9-4.8-5.1c-1.2-2.4-1.8-5-1.7-7.7
		c-0.1-3.3,0.7-6.6,2.2-9.5c1.4-2.7,3.6-5,6.2-6.5c2.8-1.6,6-2.4,9.3-2.4c3.4-0.2,6.8,0.9,9.4,3.1c2.3,2.1,3.6,5.1,3.7,8.2h-7
		c-0.1-1.4-0.8-2.7-2-3.6c-1.4-1-3.1-1.4-4.8-1.3c-1.9,0-3.8,0.5-5.3,1.6c-1.5,1.1-2.8,2.5-3.6,4.2c-0.9,1.8-1.4,3.8-1.3,5.8
		c-0.2,2.4,0.6,4.7,2.1,6.5c1.3,1.5,3.2,2.3,5.1,2.2c1.7,0.1,3.5-0.4,4.9-1.4c1.3-0.9,2.4-2.2,3-3.6h7.1
		C249.4,43.1,244.3,46.8,236.5,46.8z"/>
	<path class="st0" d="M273.9,46.8c-2.6,0.1-5.3-0.5-7.6-1.8c-2.1-1.2-3.8-3-4.9-5.1c-1.2-2.4-1.8-5-1.7-7.7c0-3.2,0.7-6.3,2.2-9.2
		c1.4-2.7,3.6-5,6.2-6.6c2.9-1.7,6.1-2.6,9.5-2.5c2.6-0.1,5.2,0.6,7.5,1.8c2.1,1.2,3.8,3,4.9,5.1c1.2,2.4,1.8,5,1.7,7.6
		c0,3.2-0.7,6.3-2.2,9.1C286.5,43.5,280.5,47,273.9,46.8L273.9,46.8z M274.2,40.4c2,0.1,4-0.5,5.7-1.5c1.6-1,2.8-2.4,3.6-4.1
		c0.9-1.8,1.3-3.7,1.3-5.7c0.2-2.4-0.6-4.8-2.1-6.6c-1.4-1.5-3.4-2.3-5.5-2.2c-3.9-0.2-7.6,2-9.3,5.6c-0.9,1.8-1.3,3.8-1.3,5.7
		c-0.2,2.4,0.6,4.8,2.2,6.6C270.2,39.7,272.2,40.5,274.2,40.4L274.2,40.4z"/>
	<path class="st0" d="M298,46.1l4.1-23.4c0.3-1.5-0.3-2.2-1.8-2.2h-2.7l1-5.8h5.7c1.3-0.1,2.5,0.3,3.5,1.1c0.8,0.8,1.2,1.9,1.2,3
		v0.3h0.4c1-1.6,2.4-2.9,4-3.8c1.9-1,4-1.5,6.1-1.4c2.3-0.1,4.5,0.6,6.4,1.9c1.6,1.3,2.8,3.1,3.4,5.1c0.6,2.3,0.7,4.8,0.1,7.2
		l-3.2,18h-6.7l3.1-17.5c0.5-2,0.2-4.2-0.8-6c-1.2-1.6-3.1-2.5-5.1-2.3c-2.2-0.1-4.4,0.8-6,2.4c-1.8,1.9-2.9,4.3-3.3,6.9l-2.9,16.7
		L298,46.1z"/>
</g>
<g id="it">
	<path class="st1" d="M353,46.1c-1.9,0.2-3.8-0.6-5-2.1c-1.1-1.7-1.5-3.7-1-5.7l2.8-15.8c0.3-1.4-0.3-2.1-1.6-2.1h-7.7l1-5.8h8.8
		c2.7,0,4.5,0.6,5.4,1.9c0.9,1.3,1.2,3.3,0.7,6l-2.8,15.7c-0.2,1.4,0.4,2.1,1.7,2.1h9l-1,5.8L353,46.1z M355.7,9.8
		c-1.4,0-2.7-0.5-3.7-1.5c-1-0.9-1.5-2.2-1.5-3.5c0-1.3,0.5-2.6,1.5-3.5c1-0.9,2.4-1.4,3.7-1.3c1.4,0,2.7,0.5,3.7,1.4
		c1,0.9,1.5,2.2,1.5,3.5c0,1.3-0.5,2.6-1.5,3.5C358.4,9.3,357.1,9.9,355.7,9.8z"/>
	<path class="st1" d="M390.6,46.1c-2.6,0.2-5.1-0.7-7-2.6c-1.6-1.7-2.1-4.3-1.5-7.6l2.7-15.4H377l1-5.7h4.7c2,0.1,3.8-1.3,4.3-3.3
		l1.8-5.1h5.2l-1.5,8.2H405l-1,5.7h-12.4l-2.7,15.3c-0.3,1.1,0,2.3,0.6,3.2c0.9,0.9,2.2,1.4,3.4,1.2h7.5l-1,6L390.6,46.1z"/>
</g>
</svg>
